<?xml version="1.0" encoding="UTF-8" standalone="no"?> <!-- Created with Vectornator Pro for iOS (http://vectornator.io/) --><!DOCTYPE svg PUBLIC "-//W3C//DTD SVG 1.1//EN" "http://www.w3.org/Graphics/SVG/1.1/DTD/svg11.dtd">
<svg height="100%" style="fill-rule:evenodd;clip-rule:evenodd;stroke-linecap:round;stroke-linejoin:round;" xmlns:xlink="http://www.w3.org/1999/xlink" xmlns="http://www.w3.org/2000/svg" xml:space="preserve" width="100%" xmlns:vectornator="http://vectornator.io" version="1.1" viewBox="0 0 2048 1536">
<metadata>
<vectornator:setting key="RulersVisible" value="1"/>
<vectornator:setting key="GridSpacing" value="36"/>
<vectornator:setting key="Units" value="Pixels"/>
<vectornator:setting key="DynamicGuides" value="1"/>
<vectornator:setting key="SnapToPoints" value="0"/>
<vectornator:setting key="SnapToGrid" value="0"/>
<vectornator:setting key="ShowGrid" value="1"/>
<vectornator:setting key="SnapToEdges" value="0"/>
</metadata>
<defs/>
<g id="Layer 1" vectornator:layerName="Layer 1">
<path d="M1373.06+143.438C1367.52+143.425+1362.03+144.394+1356.75+146.656C1352.21+148.601+1348.48+153.334+1344.34+155.969C1293.88+188.079+1250.07+226.428+1203.5+263.688C1195.08+270.423+1186.33+276.686+1177.5+282.844C1179.95+285.723+1182.08+288.941+1183.78+292.625C1189.5+305.02+1188.8+317.707+1182.22+328.625C1176.92+337.412+1168.23+344.416+1157.47+349.469C1137.81+358.7+1112.88+360.734+1096.78+353.156C1094.58+352.122+1091.98+349.96+1089.25+347.375C1061.76+368.24+1034.38+389.295+1007.25+410.688C970.852+439.392+934.792+468.485+899.062+497.719C863.897+526.49+826.217+556.365+795.5+589.875C790.188+595.67+763.963+616.209+767.562+621.969C770.647+626.904+816.103+611.52+821.406+609.531C883.911+586.092+1138.59+473.416+1206.62+452.156C1288.48+426.575+1371.1+402.962+1453.06+377.594C1477.81+369.935+1544.13+365.427+1549.88+339.781C1567.77+259.898+1498.9+218.116+1439.59+174.625C1422.49+162.08+1397.09+143.493+1373.06+143.438Z" stroke="#ffc746" stroke-width="5" fill="#ffc746" opacity="1" stroke-linejoin="round"/>
</g>
<g id="Layer 2" vectornator:layerName="Layer 2">
<path d="M1495.62+274.5C1327.43+277.21+849.86+554.069+767.219+622.938C764.103+625.534+778.262+763.592+779.438+768C786.218+793.428+791.384+824.138+795.469+855.406C795.761+855.433+796.046+855.44+796.344+855.469C804.675+856.283+812.013+857.856+818.406+860.344C825.159+861.24+831.72+863.157+838.219+866.406C842.256+868.425+843.784+869.19+845.719+870.281C858.276+877.365+863.225+886.154+862.156+902.188C861.244+915.873+855.645+927.919+846.125+938.812C840.065+945.747+832.793+951.837+823.344+958.469C818.108+964.713+812.485+970.284+806.438+974.719C808.282+1005.82+808.969+1027.91+808.969+1027.91C808.969+1027.91+954.272+997.348+973.625+991.656C1109.22+951.775+1221.83+952.238+1357.81+939.875C1506.25+926.38+1568.17+961.149+1561.81+795.938C1559.22+728.593+1562.69+637.93+1564.47+550.406C1559.18+549.262+1554.03+548.167+1547.69+546.625C1546.33+546.295+1541.58+545.215+1541.19+545.125C1529.69+542.51+1523.54+540.592+1516.78+536.812C1506.83+531.25+1499.78+522.918+1496.28+511.438C1489.54+489.277+1499.28+455.342+1518.16+425.875C1527.39+411.457+1538.22+399.192+1549.66+390.75C1554.05+387.502+1558.56+384.938+1563.09+382.875C1561.21+351.968+1558.04+324.887+1552.78+304.281C1547.33+282.918+1526.77+273.998+1495.62+274.5Z" stroke="#cda23e" stroke-width="5" fill="#cda23e" opacity="1" stroke-linejoin="round"/>
</g>
<g id="Layer 3" vectornator:layerName="Layer 3">
<path d="M1379.03+437.126C1453.99+372.616+1404.31+563.929+1339.16+526.699C1262.35+482.806+1355.65+457.24+1379.03+437.126Z" stroke="#ffc746" stroke-width="5" fill="#ffc746" opacity="1" stroke-linejoin="round"/>
<path d="M1136.71+546.892C1162.29+550.532+1048.67+735.321+1009.86+670.638C962.668+591.98+1102.51+542.025+1136.71+546.892Z" stroke="#ffc746" stroke-width="5" fill="#ffc746" opacity="1" stroke-linejoin="round"/>
<path d="M1261.5+683.582C1358.37+655.706+1376.42+805.291+1255.28+801.114C1154.13+797.626+1248.3+687.379+1261.5+683.582Z" stroke="#ffc746" stroke-width="5" fill="#ffc746" opacity="1" stroke-linejoin="round"/>
<path d="M997.436+808.88C1099.47+804.318+989.887+959.742+921.843+886.027C897.423+859.572+961.469+810.489+997.436+808.88Z" stroke="#ffc746" stroke-width="5" fill="#ffc746" opacity="1" stroke-linejoin="round"/>
<path d="M1460.32+617.826L1470.67+635.43L1482.06+661.318L1486.2+684.099L1486.2+691.348L1486.2+699.632L1481.03+713.094L1471.71+723.449L1457.21+734.84L1442.71+742.089L1430.29+743.124L1418.9+740.018L1409.58+732.769L1405.43+723.449L1403.36+712.059L1403.36+699.632L1403.36+689.277L1405.43+679.957L1408.54+670.638L1413.72+659.247L1417.86+649.927L1422+643.714L1428.22+635.43L1438.57+628.181L1444.78+624.039L1455.14+621.968L1455.14+621.968" stroke="#ffc746" stroke-width="5" fill="#ffc746" opacity="1" stroke-linejoin="round"/>
<path d="M918.797+656.268C933.377+682.503+926.444+816.806+869.191+789.864C811.803+762.858+887.037+599.118+918.797+656.268Z" stroke="#ffc746" stroke-width="5" fill="#ffc746" opacity="1" stroke-linejoin="round"/>
<path d="M1433.94+807.182C1480.87+776.329+1508.27+874.338+1444.37+883.468C1361.41+895.319+1419.05+816.971+1433.94+807.182Z" stroke="#ffc746" stroke-width="5" fill="#ffc746" opacity="1" stroke-linejoin="round"/>
</g>
</svg>
